<?xml version="1.0" encoding="utf-8"?>
<!-- Generator: Adobe Illustrator 14.0.0, SVG Export Plug-In . SVG Version: 6.00 Build 43363)  -->
<!DOCTYPE svg PUBLIC "-//W3C//DTD SVG 1.1//EN" "http://www.w3.org/Graphics/SVG/1.1/DTD/svg11.dtd">
<svg version="1.1" id="Ebene_1" xmlns="http://www.w3.org/2000/svg" xmlns:xlink="http://www.w3.org/1999/xlink" x="0px" y="0px"
	 width="1002px" height="600px" viewBox="0 0 1002 600" enable-background="new 0 0 1002 600" xml:space="preserve">
<path fill-rule="evenodd" clip-rule="evenodd" d="M101,52h800c27.614,0,50,22.386,50,50v100c0,27.614-22.386,50-50,50H101
	c-27.614,0-50-22.386-50-50V102C51,74.386,73.386,52,101,52z"/>
<path fill-rule="evenodd" clip-rule="evenodd" fill="#FFFFFF" d="M189.373,253.995c0,0-0.05-16.821,0.07-24.385
	c0.12-7.564-0.224-18.133,2.658-31.941c2.882-13.807,2.916-18.24,10.087-28.599c8.572-12.383,14.884-19.961,14.441-34.358
	c-0.43-13.984-10.496-30.209-18.181-38.733c-7.685-8.525-17.17-14.288-18.852-13.808c-1.681,0.48-1.321,4.803-1.321,4.803
	s9.109,33.051,9.486,37.1c0.353,3.787,1.327,12.584-20.379,19.45c-7.132,2.256-13.482,2.642-20.806,1.681
	c-7.324-0.96-10.086-6.844-10.086-6.844s-8.765-36.979-9.006-37.82c-0.24-0.84-2.041-5.522-4.443-5.042
	c-2.401,0.48-8.507,16.972-9.726,28.335c-1.267,11.816-1.441,25.934,3.722,36.5c5.163,10.566,12.367,16.689,19.452,25.574
	c7.084,8.885,6.844,23.413,6.844,23.413l0.24,15.008v29.656L189.373,253.995z"/>
<path fill="#FFFFFF" d="M267.862,205.723c0,2.979,2.278,5.257,5.258,5.257h19.102c2.979,0,5.258-2.278,5.258-5.257v-53.276h31.02
	c2.979,0,5.257-2.278,5.257-5.258v-10.165c0-2.979-2.278-5.257-5.257-5.257h-31.02v-1.402c0-18.927,4.381-23.484,27.339-23.484
	c4.557,0,7.887,1.402,11.742,1.402h3.154c2.979,0,5.257-2.278,5.257-5.257v-9.463c0-2.629-2.278-4.732-5.257-5.258
	c-5.257-1.051-14.896-1.752-22.783-1.752c-36.803,0-49.07,12.268-49.07,43.813V205.723z"/>
<path fill="#FFFFFF" d="M424.897,120.726c0-2.979-2.278-5.257-5.258-5.257c-19.277,0-28.215,5.257-38.029,12.443v-5.433
	c0-2.979-2.278-5.257-5.257-5.257H357.25c-2.979,0-5.258,2.278-5.258,5.257v83.245c0,2.979,2.278,5.257,5.258,5.257h19.103
	c2.979,0,5.257-2.278,5.257-5.257v-54.679c6.309-7.536,13.319-12.618,22.082-12.618c4.557,0,9.113,0.525,13.144,0.525h2.804
	c2.979,0,5.258-2.278,5.258-5.257V120.726z"/>
<path fill="#FFFFFF" d="M483.615,193.28c-14.896,0-22.082-8.587-22.082-29.267s7.185-29.092,22.082-29.092
	s22.082,8.412,22.082,29.092S498.512,193.28,483.615,193.28z M483.615,115.469c-33.123,0-51.699,16.298-51.699,48.544
	s18.577,48.72,51.699,48.72s51.699-16.474,51.699-48.72S516.738,115.469,483.615,115.469z"/>
<path fill="#FFFFFF" d="M577.564,124.757c-3.154-4.731-6.834-7.536-13.319-7.536h-18.577c-4.206,0-4.907,4.206-2.629,7.536
	l27.865,39.256l-29.792,39.432c-2.454,3.154-1.577,7.536,2.629,7.536h18.226c6.484,0,9.989-2.979,13.319-7.536l16.474-22.257
	l16.474,22.257c3.33,4.557,6.835,7.536,13.319,7.536h18.226c4.206,0,5.082-4.381,2.628-7.536l-29.792-39.432l27.865-39.256
	c2.278-3.33,1.578-7.536-2.628-7.536h-18.577c-6.484,0-10.165,2.804-13.319,7.536l-14.195,21.556L577.564,124.757z"/>
<path fill="#FFFFFF" d="M681.326,210.98c2.979,0,5.258-2.278,5.258-5.257V93.563c0-2.979-2.278-5.258-5.258-5.258h-19.103
	c-2.979,0-5.257,2.278-5.257,5.258v112.161c0,2.979,2.278,5.257,5.257,5.257H681.326z"/>
<path fill="#FFFFFF" d="M754.059,193.28c-14.896,0-22.082-8.587-22.082-29.267s7.186-29.092,22.082-29.092
	c14.896,0,22.082,8.412,22.082,29.092S768.955,193.28,754.059,193.28z M754.059,115.469c-33.123,0-51.699,16.298-51.699,48.544
	s18.577,48.72,51.699,48.72s51.699-16.474,51.699-48.72S787.182,115.469,754.059,115.469z"/>
<path fill="#FFFFFF" d="M894.448,120.726c0-2.979-2.278-5.257-5.258-5.257c-19.277,0-28.215,5.257-38.029,12.443v-5.433
	c0-2.979-2.278-5.257-5.257-5.257h-19.103c-2.979,0-5.257,2.278-5.257,5.257v83.245c0,2.979,2.278,5.257,5.257,5.257h19.103
	c2.979,0,5.257-2.278,5.257-5.257v-54.679c6.309-7.536,13.319-12.618,22.082-12.618c4.557,0,9.113,0.525,13.144,0.525h2.804
	c2.979,0,5.258-2.278,5.258-5.257V120.726z"/>
<path fill-rule="evenodd" clip-rule="evenodd" d="M71.227,394.145l71.418-71.417c19.526-19.526,51.185-19.526,70.711,0
	l71.418,71.417c19.526,19.526,19.526,51.185,0,70.711l-71.418,71.417c-19.526,19.526-51.184,19.526-70.711,0l-71.418-71.417
	C51.701,445.329,51.701,413.671,71.227,394.145z"/>
<path fill-rule="evenodd" clip-rule="evenodd" fill="#FFFFFF" d="M203.82,554.015c0,0,0.286-18.944,0.576-27.459
	s0.118-20.425,3.645-35.915c3.527-15.49,3.656-20.482,11.943-32.001c9.906-13.77,17.168-22.176,16.963-38.397
	c-0.199-15.756-11.204-34.233-19.685-43.99s-19.045-16.44-20.948-15.933c-1.903,0.506-1.585,5.381-1.585,5.381
	s9.584,37.405,9.926,41.973c0.32,4.272,1.238,14.199-23.346,21.488c-8.078,2.396-15.236,2.7-23.465,1.469
	s-11.219-7.913-11.219-7.913s-9.117-41.823-9.37-42.774c-0.253-0.952-2.186-6.261-4.9-5.77c-2.714,0.492-9.926,18.939-11.53,31.711
	c-1.668,13.281-2.151,29.176,3.448,41.179c5.599,12.004,13.587,19.046,21.384,29.196c7.797,10.15,7.23,26.505,7.23,26.505
	l-0.035,16.906l-0.604,33.396L203.82,554.015z"/>
<path d="M335.386,481.831c0,2.916,2.229,5.145,5.145,5.145h18.694c2.916,0,5.145-2.229,5.145-5.145v-52.137h30.356
	c2.916,0,5.146-2.229,5.146-5.145v-9.947c0-2.916-2.23-5.145-5.146-5.145H364.37v-1.372c0-18.522,4.288-22.981,26.754-22.981
	c4.459,0,7.718,1.372,11.491,1.372h3.087c2.916,0,5.145-2.229,5.145-5.146v-9.261c0-2.573-2.229-4.631-5.145-5.145
	c-5.146-1.029-14.578-1.715-22.295-1.715c-36.016,0-48.021,12.005-48.021,42.876V481.831z"/>
<path d="M489.062,398.652c0-2.916-2.229-5.146-5.145-5.146c-18.865,0-27.612,5.146-37.216,12.177v-5.316
	c0-2.916-2.229-5.145-5.145-5.145h-18.694c-2.916,0-5.145,2.229-5.145,5.145v81.464c0,2.916,2.229,5.145,5.145,5.145h18.694
	c2.916,0,5.145-2.229,5.145-5.145v-53.509c6.174-7.375,13.034-12.348,21.609-12.348c4.459,0,8.918,0.514,12.863,0.514h2.744
	c2.916,0,5.145-2.229,5.145-5.145V398.652z"/>
<path d="M546.524,469.654c-14.578,0-21.609-8.404-21.609-28.641s7.032-28.469,21.609-28.469c14.578,0,21.609,8.232,21.609,28.469
	S561.103,469.654,546.524,469.654z M546.524,393.507c-32.414,0-50.593,15.95-50.593,47.506c0,31.557,18.179,47.678,50.593,47.678
	s50.594-16.122,50.594-47.678C597.118,409.457,578.938,393.507,546.524,393.507z"/>
<path d="M641.894,402.597c-3.087-4.63-6.689-7.375-13.035-7.375H610.68c-4.116,0-4.802,4.116-2.572,7.375l27.269,38.417
	l-29.155,38.588c-2.401,3.087-1.543,7.375,2.572,7.375h17.836c6.346,0,9.776-2.916,13.034-7.375l16.122-21.781l16.121,21.781
	c3.259,4.459,6.688,7.375,13.034,7.375h17.836c4.116,0,4.974-4.288,2.572-7.375l-29.155-38.588l27.269-38.417
	c2.229-3.259,1.543-7.375-2.573-7.375h-18.179c-6.346,0-9.947,2.744-13.034,7.375l-13.892,21.095L641.894,402.597z"/>
<path d="M743.435,486.976c2.916,0,5.145-2.229,5.145-5.145V372.069c0-2.916-2.229-5.145-5.145-5.145h-18.694
	c-2.916,0-5.145,2.229-5.145,5.145v109.762c0,2.916,2.229,5.145,5.145,5.145H743.435z"/>
<path d="M814.613,469.654c-14.578,0-21.609-8.404-21.609-28.641s7.032-28.469,21.609-28.469s21.609,8.232,21.609,28.469
	S829.19,469.654,814.613,469.654z M814.613,393.507c-32.414,0-50.593,15.95-50.593,47.506c0,31.557,18.179,47.678,50.593,47.678
	s50.593-16.122,50.593-47.678C865.206,409.457,847.027,393.507,814.613,393.507z"/>
<path d="M952,398.652c0-2.916-2.229-5.146-5.145-5.146c-18.865,0-27.612,5.146-37.216,12.177v-5.316
	c0-2.916-2.229-5.145-5.145-5.145h-18.694c-2.916,0-5.145,2.229-5.145,5.145v81.464c0,2.916,2.229,5.145,5.145,5.145h18.694
	c2.916,0,5.145-2.229,5.145-5.145v-53.509c6.174-7.375,13.034-12.348,21.61-12.348c4.459,0,8.918,0.514,12.862,0.514h2.744
	c2.916,0,5.145-2.229,5.145-5.145V398.652z"/>
</svg>
