<?xml version="1.0" encoding="UTF-8" standalone="no"?>
<!-- Generator: Adobe Illustrator 14.0.0, SVG Export Plug-In . SVG Version: 6.00 Build 43363)  -->

<svg
   xmlns:dc="http://purl.org/dc/elements/1.1/"
   xmlns:cc="http://creativecommons.org/ns#"
   xmlns:rdf="http://www.w3.org/1999/02/22-rdf-syntax-ns#"
   xmlns:svg="http://www.w3.org/2000/svg"
   xmlns="http://www.w3.org/2000/svg"
   xmlns:xlink="http://www.w3.org/1999/xlink"
   xmlns:sodipodi="http://sodipodi.sourceforge.net/DTD/sodipodi-0.dtd"
   xmlns:inkscape="http://www.inkscape.org/namespaces/inkscape"
   version="1.1"
   id="Ebene_1"
   x="0px"
   y="0px"
   width="256"
   height="256"
   viewBox="0 0 256 256"
   enable-background="new 0 0 1002 600"
   xml:space="preserve"
   sodipodi:docname="gradient-froxlor.svg"
   inkscape:version="0.92.3 (2405546, 2018-03-11)"><metadata
   id="metadata43"><rdf:RDF><cc:Work
       rdf:about=""><dc:format>image/svg+xml</dc:format><dc:type
         rdf:resource="http://purl.org/dc/dcmitype/StillImage" /><dc:title /></cc:Work></rdf:RDF></metadata><defs
   id="defs41"><linearGradient
     inkscape:collect="always"
     id="linearGradient869"><stop
       style="stop-color:#166ea1;stop-opacity:1"
       offset="0"
       id="stop865" /><stop
       style="stop-color:#63caf5;stop-opacity:1"
       offset="1"
       id="stop867" /></linearGradient><radialGradient
     inkscape:collect="always"
     xlink:href="#linearGradient869"
     id="radialGradient873"
     cx="164.48598"
     cy="440.2027"
     fx="164.48598"
     fy="440.2027"
     r="121.418"
     gradientTransform="matrix(2.5173605,0,0,1.8292467,-220.36004,-295.76091)"
     gradientUnits="userSpaceOnUse" /></defs><sodipodi:namedview
   pagecolor="#ffffff"
   bordercolor="#666666"
   borderopacity="1"
   objecttolerance="10"
   gridtolerance="10"
   guidetolerance="10"
   inkscape:pageopacity="0"
   inkscape:pageshadow="2"
   inkscape:window-width="1920"
   inkscape:window-height="996"
   id="namedview39"
   showgrid="false"
   inkscape:zoom="1.4142136"
   inkscape:cx="189.54966"
   inkscape:cy="39.10333"
   inkscape:window-x="1920"
   inkscape:window-y="0"
   inkscape:window-maximized="1"
   inkscape:current-layer="g852" />










<g
   id="g852"
   transform="matrix(1.0409403,0,0,1.0409403,-57.287894,-320.69654)"><path
     id="path20"
     d="m 71.227,394.145 71.418,-71.417 c 19.526,-19.526 51.185,-19.526 70.711,0 l 71.418,71.417 c 19.526,19.526 19.526,51.185 0,70.711 l -71.418,71.417 c -19.526,19.526 -51.184,19.526 -70.711,0 L 71.227,464.856 c -19.526,-19.527 -19.526,-51.185 0,-70.711 z"
     inkscape:connector-curvature="0"
     style="clip-rule:evenodd;fill-rule:evenodd;fill-opacity:1;fill:url(#radialGradient873)" /><path
     id="path22"
     d="m 203.82,554.015 c 0,0 0.286,-18.944 0.576,-27.459 0.29,-8.515 0.118,-20.425 3.645,-35.915 3.527,-15.49 3.656,-20.482 11.943,-32.001 9.906,-13.77 17.168,-22.176 16.963,-38.397 -0.199,-15.756 -11.204,-34.233 -19.685,-43.99 -8.481,-9.757 -19.045,-16.44 -20.948,-15.933 -1.903,0.506 -1.585,5.381 -1.585,5.381 0,0 9.584,37.405 9.926,41.973 0.32,4.272 1.238,14.199 -23.346,21.488 -8.078,2.396 -15.236,2.7 -23.465,1.469 -8.229,-1.231 -11.219,-7.913 -11.219,-7.913 0,0 -9.117,-41.823 -9.37,-42.774 -0.253,-0.952 -2.186,-6.261 -4.9,-5.77 -2.714,0.492 -9.926,18.939 -11.53,31.711 -1.668,13.281 -2.151,29.176 3.448,41.179 5.599,12.004 13.587,19.046 21.384,29.196 7.797,10.15 7.23,26.505 7.23,26.505 l -0.035,16.906 -0.604,33.396 z"
     inkscape:connector-curvature="0"
     style="clip-rule:evenodd;fill:#ffffff;fill-rule:evenodd" /></g>







</svg>