<?xml version="1.0" encoding="utf-8"?>
<!-- Generator: Adobe Illustrator 27.0.1, SVG Export Plug-In . SVG Version: 6.00 Build 0)  -->
<svg version="1.1"
	 id="Ebene_1" xmlns:cc="http://creativecommons.org/ns#" xmlns:svg="http://www.w3.org/2000/svg" xmlns:dc="http://purl.org/dc/elements/1.1/" xmlns:rdf="http://www.w3.org/1999/02/22-rdf-syntax-ns#" xmlns:sodipodi="http://sodipodi.sourceforge.net/DTD/sodipodi-0.dtd" xmlns:inkscape="http://www.inkscape.org/namespaces/inkscape"
	 xmlns="http://www.w3.org/2000/svg" xmlns:xlink="http://www.w3.org/1999/xlink" x="0px" y="0px" viewBox="0 0 252.7 252.7"
	 style="enable-background:new 0 0 252.7 252.7;" xml:space="preserve">
<style type="text/css">
	.st0{fill-rule:evenodd;clip-rule:evenodd;fill:#FFFFFF;}
</style>
<sodipodi:namedview  bordercolor="#666666" borderopacity="1" gridtolerance="10" guidetolerance="10" id="namedview39" inkscape:current-layer="g852" inkscape:cx="189.54966" inkscape:cy="39.10333" inkscape:pageopacity="0" inkscape:pageshadow="2" inkscape:window-height="996" inkscape:window-maximized="1" inkscape:window-width="1920" inkscape:window-x="1920" inkscape:window-y="0" inkscape:zoom="1.4142136" objecttolerance="10" pagecolor="#ffffff" showgrid="false">
	</sodipodi:namedview>
<g id="g852" transform="matrix(1.0409403,0,0,1.0409403,-57.287894,-320.69654)">
	<path class="st0" d="M283.2,464.8l-71.4,71.4c-2.9,2.9-6,5.3-9.4,7.4c0.1-5.9,0.2-12.8,0.4-17.1c0.2-8.5,0.1-20.4,3.6-35.9
		c3.5-15.5,3.6-20.5,11.9-32c9.9-13.8,17.2-22.2,17-38.4c-0.2-15.7-11.2-34.2-19.5-44.1c-8.5-9.7-19.1-16.4-21-15.9
		c-1.9,0.5-1.6,5.4-1.6,5.4s9.6,37.4,9.9,42c0.3,4.3,1.2,14.2-23.4,21.5c-8.1,2.4-15.3,2.7-23.5,1.5s-11.2-7.9-11.2-7.9
		s-9.2-41.8-9.4-42.8c-0.3-1-2.2-6.3-4.9-5.8s-9.9,18.9-11.5,31.7c-1.7,13.3-2.2,29.2,3.4,41.2s13.6,19.1,21.4,29.2
		c7.8,10.1,7.2,26.5,7.2,26.5v16.9l-0.4,24.2c-3.5-2.1-6.7-4.6-9.7-7.6l-71.4-71.4c-19.5-19.5-19.5-51.1,0-70.7l71.4-71.4
		c19.5-19.5,51.2-19.5,70.7,0l71.4,71.4C302.7,413.6,302.7,445.3,283.2,464.8z"/>
</g>
</svg>
