<?xml version="1.0" encoding="utf-8"?>
<!-- Generator: Adobe Illustrator 27.0.1, SVG Export Plug-In . SVG Version: 6.00 Build 0)  -->
<svg version="1.1" id="Ebene_1" xmlns="http://www.w3.org/2000/svg" xmlns:xlink="http://www.w3.org/1999/xlink" x="0px" y="0px"
	 viewBox="0 0 895.5 242.9" style="enable-background:new 0 0 895.5 242.9;" xml:space="preserve">
<style type="text/css">
	.st0{fill:#FFFFFF;stroke:#000000;stroke-width:0.75;stroke-miterlimit:10;}
	.st1{fill-rule:evenodd;clip-rule:evenodd;fill:#FFFFFF;}
	.st2{fill-rule:evenodd;clip-rule:evenodd;fill:url(#SVGID_1_);}
</style>
<path class="st0" d="M278.9,173.6c0,2.9,2.2,5.1,5.1,5.1h18.7c2.9,0,5.1-2.2,5.1-5.1v-52.1h30.4c2.9,0,5.1-2.2,5.1-5.1v-9.9
	c0-2.9-2.2-5.1-5.1-5.1h-30.4v-1.5c0-18.5,4.3-23,26.8-23c4.5,0,7.7,1.4,11.5,1.4h3.1c2.9,0,5.1-2.2,5.1-5.1v-9.3
	c0-2.6-2.2-4.6-5.1-5.1c-5.1-1-14.6-1.7-22.3-1.7c-36,0-48,12-48,42.9L278.9,173.6L278.9,173.6z"/>
<path class="st0" d="M432.6,90.5c0-2.9-2.2-5.1-5.1-5.1c-18.9,0-27.6,5.1-37.2,12.2v-5.3c0-2.9-2.2-5.1-5.1-5.1h-18.7
	c-2.9,0-5.1,2.2-5.1,5.1v81.5c0,2.9,2.2,5.1,5.1,5.1h18.6c2.9,0,5.1-2.2,5.1-5.1v-53.5c6.2-7.4,13-12.3,21.6-12.3
	c4.5,0,8.9,0.5,12.9,0.5h2.7c2.9,0,5.1-2.2,5.1-5.1L432.6,90.5L432.6,90.5z"/>
<path class="st0" d="M490,161.5c-14.6,0-21.6-8.4-21.6-28.6s7-28.5,21.6-28.5s21.6,8.2,21.6,28.5S504.6,161.5,490,161.5z M490,85.3
	c-32.4,0-50.6,16-50.6,47.5c0,31.6,18.2,47.7,50.6,47.7s50.6-16.1,50.6-47.7S522.5,85.3,490,85.3z"/>
<path class="st0" d="M585.4,94.4c-3.1-4.6-6.7-7.4-13-7.4h-18.2c-4.1,0-4.8,4.1-2.6,7.4l27.3,38.4l-29.2,38.6
	c-2.4,3.1-1.5,7.4,2.6,7.4h17.8c6.3,0,9.8-2.9,13-7.4l16.1-21.8l16.1,21.8c3.3,4.5,6.7,7.4,13,7.4h17.8c4.1,0,5-4.3,2.6-7.4
	l-29.2-38.6l27.3-38.4c2.2-3.3,1.5-7.4-2.6-7.4H626c-6.3,0-9.9,2.7-13,7.4l-13.9,21.1L585.4,94.4z"/>
<path class="st0" d="M687,178.8c2.9,0,5.1-2.2,5.1-5.1V63.9c0-2.9-2.2-5.1-5.1-5.1h-18.7c-2.9,0-5.1,2.2-5.1,5.1v109.8
	c0,2.9,2.2,5.1,5.1,5.1L687,178.8L687,178.8z"/>
<path class="st0" d="M758.1,161.5c-14.6,0-21.6-8.4-21.6-28.6s7-28.5,21.6-28.5s21.6,8.2,21.6,28.5S772.7,161.5,758.1,161.5z
	 M758.1,85.3c-32.4,0-50.6,16-50.6,47.5c0,31.6,18.2,47.7,50.6,47.7s50.6-16.1,50.6-47.7S790.5,85.3,758.1,85.3z"/>
<path class="st0" d="M895.5,90.5c0-2.9-2.2-5.1-5.1-5.1c-18.9,0-27.6,5.1-37.2,12.2v-5.3c0-2.9-2.2-5.1-5.1-5.1h-18.7
	c-2.9,0-5.1,2.2-5.1,5.1v81.5c0,2.9,2.2,5.1,5.1,5.1h18.7c2.9,0,5.1-2.2,5.1-5.1v-53.5c6.2-7.4,13-12.3,21.6-12.3
	c4.5,0,8.9,0.5,12.9,0.5h2.7c2.9,0,5.1-2.2,5.1-5.1V90.5L895.5,90.5z"/>
<g id="g852" transform="matrix(1.0409403,0,0,1.0409403,-57.287894,-320.69654)">
	<path id="path20_00000122681805798510100680000012541343189425925554_" class="st1" d="M69.1,390.8l68.6-68.6
		c18.7-18.7,49.2-18.7,67.9,0l68.6,68.6c18.7,18.7,18.7,49.2,0,68l-68.6,68.6c-18.7,18.7-49.2,18.7-67.9,0l-68.6-68.6
		C50.4,440,50.4,409.6,69.1,390.8z"/>
	
		<radialGradient id="SVGID_1_" cx="-1605.6036" cy="-366.0744" r="116.7234" gradientTransform="matrix(3.0745 0 0 -2.2356 5123.1631 -316.6216)" gradientUnits="userSpaceOnUse">
		<stop  offset="0" style="stop-color:#1872A2"/>
		<stop  offset="1" style="stop-color:#5ABDE0"/>
	</radialGradient>
	<path class="st2" d="M274.2,458.7l-68.6,68.6c-2.8,2.8-5.8,5.1-9,7.1c0.1-5.7,0.2-12.3,0.4-16.4c0.2-8.2,0.1-19.6,3.5-34.5
		s3.5-19.7,11.4-30.8c9.5-13.3,16.5-21.3,16.3-36.9c-0.2-15.1-10.8-32.9-18.7-42.4c-8.2-9.3-18.3-15.8-20.2-15.3
		c-1.8,0.5-1.5,5.2-1.5,5.2s9.2,36,9.5,40.4c0.3,4.1,1.2,13.7-22.5,20.7c-7.8,2.3-14.7,2.6-22.6,1.4c-7.9-1.2-10.8-7.6-10.8-7.6
		s-8.8-40.2-9-41.1c-0.3-1-2.1-6.1-4.7-5.6c-2.6,0.5-9.5,18.2-11,30.5c-1.6,12.8-2.1,28.1,3.3,39.6s13.1,18.4,20.6,28.1
		c7.5,9.7,6.9,25.5,6.9,25.5v16.2l-0.4,23.3c-3.4-2-6.4-4.4-9.3-7.3l-68.6-68.6c-18.7-18.7-18.7-49.1,0-68l68.6-68.6
		c18.7-18.7,49.2-18.7,67.9,0l68.6,68.6C292.9,409.5,292.9,440,274.2,458.7z"/>
</g>
</svg>
